<?xml version="1.0" encoding="iso-8859-1"?>
<!-- Generator: Adobe Illustrator 19.0.0, SVG Export Plug-In . SVG Version: 6.00 Build 0)  -->
<svg version="1.1" id="Capa_1" xmlns="http://www.w3.org/2000/svg" xmlns:xlink="http://www.w3.org/1999/xlink" x="0px" y="0px"
	 viewBox="0 0 436.907 436.907" style="enable-background:new 0 0 436.907 436.907;" xml:space="preserve">
<circle style="fill:#334D5C;" cx="218.453" cy="218.453" r="218.453"/>
<g style="opacity:0.1;">
	<path d="M278.332,90.45v24.576h-23.893v16.794l23.893,23.893v0.683L421.346,299.41c8.658-21.678,13.995-45.04,15.259-69.494
		L297.139,90.45H278.332z"/>
</g>
<g style="opacity:0.1;">
	<path d="M195.49,134.038L103.74,346.45l88.885,88.885c8.477,0.999,17.084,1.572,25.829,1.572
		c88.093,0,163.954-52.172,198.509-127.278l-175.563-175.59H195.49z"/>
</g>
<path id="SVGCleanerId_0" style="fill:#44C4A1;" d="M282.724,346.453l-19.758-45.89h-89.032l-19.75,45.89h-50.442l91.764-212.406
	h45.89l91.772,212.406H282.724z M218.601,197.252l-26.739,61.687h53.174L218.601,197.252z"/>
<g>
	<path id="SVGCleanerId_0_1_" style="fill:#44C4A1;" d="M282.724,346.453l-19.758-45.89h-89.032l-19.75,45.89h-50.442
		l91.764-212.406h45.89l91.772,212.406H282.724z M218.601,197.252l-26.739,61.687h53.174L218.601,197.252z"/>
</g>
<path style="fill:#44C4A1;" d="M278.315,156.381v-24.566h-23.886V115.02h23.886V90.453h18.836v24.566h23.886v16.795h-23.886v24.566
	H278.315z"/>
<g>
</g>
<g>
</g>
<g>
</g>
<g>
</g>
<g>
</g>
<g>
</g>
<g>
</g>
<g>
</g>
<g>
</g>
<g>
</g>
<g>
</g>
<g>
</g>
<g>
</g>
<g>
</g>
<g>
</g>
</svg>
