<?xml version="1.0" encoding="iso-8859-1"?>
<!-- Generator: Adobe Illustrator 19.0.0, SVG Export Plug-In . SVG Version: 6.00 Build 0)  -->
<svg version="1.1" id="Layer_1" xmlns="http://www.w3.org/2000/svg" xmlns:xlink="http://www.w3.org/1999/xlink" x="0px" y="0px"
	 viewBox="0 0 512 512" style="enable-background:new 0 0 512 512;" xml:space="preserve">
<path style="fill:#25B6D2;" d="M425.504,512H86.496c-18.048,0-32.832-14.768-32.832-32.832V32.832C53.664,14.768,68.448,0,86.496,0
	h339.008c18.048,0,32.832,14.768,32.832,32.832v446.352C458.336,497.232,443.552,512,425.504,512z"/>
<g>
	<path style="fill:#FFFFFF;" d="M305.536,345.488h-38.4l-15.264-39.712h-69.904l-14.416,39.712H130.08l68.112-174.848h37.328
		L305.536,345.488z M240.512,276.304l-24.08-64.864L192.8,276.304H240.512z"/>
	<path style="fill:#FFFFFF;" d="M320.752,259.424V223.44h-36.256v-24.832h36.256V162.64h24.176v35.968h36.336v24.832h-36.336v35.984
		H320.752z"/>
</g>
<g>
</g>
<g>
</g>
<g>
</g>
<g>
</g>
<g>
</g>
<g>
</g>
<g>
</g>
<g>
</g>
<g>
</g>
<g>
</g>
<g>
</g>
<g>
</g>
<g>
</g>
<g>
</g>
<g>
</g>
</svg>
